<svg width="21" height="20" viewBox="0 0 21 20" fill="none" xmlns="http://www.w3.org/2000/svg">
<path fill-rule="evenodd" clip-rule="evenodd" d="M6.30972 7.5C6.14493 7.50004 5.98384 7.54893 5.84684 7.6405C5.70983 7.73207 5.60305 7.8622 5.53999 8.01445C5.47693 8.1667 5.46043 8.33423 5.49257 8.49586C5.5247 8.65749 5.60404 8.80596 5.72055 8.9225L9.88722 13.0892C10.0435 13.2454 10.2554 13.3332 10.4764 13.3332C10.6974 13.3332 10.9093 13.2454 11.0656 13.0892L15.2322 8.9225C15.3487 8.80596 15.4281 8.65749 15.4602 8.49586C15.4923 8.33423 15.4758 8.1667 15.4128 8.01445C15.3497 7.8622 15.2429 7.73207 15.1059 7.6405C14.9689 7.54893 14.8078 7.50004 14.6431 7.5H6.30972Z" fill="#F25764"/>
</svg>
