<svg width="40" height="40" viewBox="0 0 40 40" fill="none" xmlns="http://www.w3.org/2000/svg">
<rect x="39.25" y="39.25" width="38.5" height="38.5" rx="19.25" transform="rotate(-180 39.25 39.25)" fill="white"/>
<path d="M12.8585 20.0007C12.8585 19.7734 12.9488 19.5555 13.1095 19.3948C13.2702 19.2341 13.4882 19.1438 13.7154 19.1438L24.2128 19.1438L20.5337 15.4654C20.3728 15.3044 20.2823 15.0861 20.2823 14.8584C20.2823 14.6308 20.3728 14.4124 20.5337 14.2514C20.6947 14.0904 20.9131 14 21.1407 14C21.3684 14 21.5867 14.0904 21.7477 14.2514L26.8893 19.393C26.9692 19.4726 27.0326 19.5672 27.0758 19.6714C27.1191 19.7755 27.1414 19.8872 27.1414 20C27.1414 20.1128 27.1191 20.2245 27.0758 20.3286C27.0326 20.4328 26.9692 20.5274 26.8893 20.607L21.7477 25.7486C21.668 25.8283 21.5734 25.8915 21.4692 25.9347C21.3651 25.9778 21.2535 26 21.1407 26C21.028 26 20.9164 25.9778 20.8122 25.9347C20.7081 25.8915 20.6135 25.8283 20.5337 25.7486C20.454 25.6689 20.3908 25.5742 20.3477 25.4701C20.3045 25.3659 20.2823 25.2543 20.2823 25.1416C20.2823 25.0289 20.3045 24.9172 20.3477 24.8131C20.3908 24.7089 20.454 24.6143 20.5337 24.5346L24.2128 20.8576L13.7154 20.8576C13.4882 20.8576 13.2702 20.7674 13.1095 20.6067C12.9488 20.446 12.8585 20.228 12.8585 20.0007Z" fill="#12355B"/>
<rect x="39.25" y="39.25" width="38.5" height="38.5" rx="19.25" transform="rotate(-180 39.25 39.25)" stroke="#12355B" stroke-width="1.5"/>
</svg>
