<svg width="40" height="40" viewBox="0 0 40 40" fill="none" xmlns="http://www.w3.org/2000/svg">
<rect x="0.75" y="0.75" width="38.5" height="38.5" rx="19.25" fill="white"/>
<path d="M27.1415 19.9993C27.1415 20.2266 27.0512 20.4445 26.8905 20.6052C26.7298 20.7659 26.5118 20.8562 26.2846 20.8562H15.7872L19.4663 24.5346C19.6272 24.6956 19.7177 24.9139 19.7177 25.1416C19.7177 25.3692 19.6272 25.5876 19.4663 25.7486C19.3053 25.9096 19.0869 26 18.8593 26C18.6316 26 18.4133 25.9096 18.2523 25.7486L13.1107 20.607C13.0308 20.5274 12.9674 20.4328 12.9242 20.3286C12.8809 20.2245 12.8586 20.1128 12.8586 20C12.8586 19.8872 12.8809 19.7755 12.9242 19.6714C12.9674 19.5672 13.0308 19.4726 13.1107 19.393L18.2523 14.2514C18.332 14.1717 18.4266 14.1085 18.5308 14.0653C18.6349 14.0222 18.7465 14 18.8593 14C18.972 14 19.0836 14.0222 19.1878 14.0653C19.2919 14.1085 19.3865 14.1717 19.4663 14.2514C19.546 14.3311 19.6092 14.4258 19.6523 14.5299C19.6955 14.6341 19.7177 14.7457 19.7177 14.8584C19.7177 14.9711 19.6955 15.0828 19.6523 15.1869C19.6092 15.2911 19.546 15.3857 19.4663 15.4654L15.7872 19.1424H26.2846C26.5118 19.1424 26.7298 19.2326 26.8905 19.3933C27.0512 19.554 27.1415 19.772 27.1415 19.9993Z" fill="#12355B"/>
<rect x="0.75" y="0.75" width="38.5" height="38.5" rx="19.25" stroke="#12355B" stroke-width="1.5"/>
</svg>
