<svg width="40" height="40" viewBox="0 0 40 40" fill="none" xmlns="http://www.w3.org/2000/svg">
<path d="M6.66634 36.6666C5.74968 36.6666 4.96468 36.3399 4.31134 35.6866C3.65801 35.0333 3.3319 34.2488 3.33301 33.3333V6.66659C3.33301 5.74992 3.65968 4.96492 4.31301 4.31159C4.96634 3.65825 5.75079 3.33214 6.66634 3.33325H21.6663C22.583 3.33325 23.368 3.65992 24.0213 4.31325C24.6747 4.96659 25.0008 5.75103 24.9997 6.66659V33.3333C24.9997 34.2499 24.673 35.0349 24.0197 35.6883C23.3663 36.3416 22.5819 36.6677 21.6663 36.6666H6.66634ZM6.66634 17.5416C7.16634 17.236 7.69412 17.0138 8.24968 16.8749C8.80523 16.736 9.38857 16.6666 9.99968 16.6666H18.333C18.9441 16.6666 19.5275 16.736 20.083 16.8749C20.6386 17.0138 21.1663 17.236 21.6663 17.5416V6.66659H6.66634V17.5416ZM14.1663 14.9999C13.2497 14.9999 12.4647 14.6733 11.8113 14.0199C11.158 13.3666 10.8319 12.5821 10.833 11.6666C10.833 10.7499 11.1597 9.96492 11.813 9.31159C12.4663 8.65825 13.2508 8.33214 14.1663 8.33325C15.083 8.33325 15.868 8.65992 16.5213 9.31325C17.1747 9.96659 17.5008 10.751 17.4997 11.6666C17.4997 12.5833 17.173 13.3683 16.5197 14.0216C15.8663 14.6749 15.0819 15.001 14.1663 14.9999ZM32.4997 25.8333L26.6663 19.9999L32.4997 14.1666L34.833 16.4999L33.0413 18.3333H38.333V21.6666H33.0413L34.833 23.4999L32.4997 25.8333ZM6.66634 33.3333H21.6663V23.3333C21.6663 22.4166 21.3397 21.6316 20.6863 20.9783C20.033 20.3249 19.2486 19.9988 18.333 19.9999H9.99968C9.08301 19.9999 8.29801 20.3266 7.64468 20.9799C6.99134 21.6333 6.66523 22.4177 6.66634 23.3333V33.3333ZM12.4997 31.6666H15.833V28.3333H19.1663V24.9999H15.833V21.6666H12.4997V24.9999H9.16634V28.3333H12.4997V31.6666Z" fill="#12355B"/>
</svg>
