<svg width="41" height="40" viewBox="0 0 41 40" fill="none" xmlns="http://www.w3.org/2000/svg">
<path d="M33.833 28.3333C34.7885 28.3333 35.5941 28.6666 36.2497 29.3333C36.9052 29.9999 37.2274 30.7777 37.2163 31.6666L23.833 36.6666L12.1663 33.3333V18.3333H15.4163L27.533 22.8166C28.3996 23.161 28.833 23.7833 28.833 24.6833C28.833 25.2055 28.6441 25.661 28.2663 26.0499C27.8885 26.4388 27.4108 26.6444 26.833 26.6666H22.1663L19.2496 25.5499L18.6996 27.1166L22.1663 28.3333H33.833ZM27.1663 5.38325C28.3441 4.01659 29.8441 3.33325 31.6663 3.33325C33.1774 3.33325 34.4552 3.88881 35.4997 4.99992C36.5441 6.11103 37.0997 7.38881 37.1663 8.83325C37.1663 9.9777 36.6108 11.3444 35.4997 12.9333C34.3885 14.5221 33.2941 15.8499 32.2163 16.9166C31.1385 17.9833 29.4552 19.5666 27.1663 21.6666C24.8552 19.5666 23.1552 17.9833 22.0663 16.9166C20.9774 15.8499 19.883 14.5221 18.783 12.9333C17.683 11.3444 17.1441 9.9777 17.1663 8.83325C17.1663 7.32214 17.7052 6.04436 18.783 4.99992C19.8608 3.95547 21.1608 3.39992 22.683 3.33325C24.4608 3.33325 25.9552 4.01659 27.1663 5.38325ZM2.13965 18.3333H8.83298V36.6666H2.13965V18.3333Z" fill="#12355B"/>
</svg>
