<svg width="40" height="40" viewBox="0 0 40 40" fill="none" xmlns="http://www.w3.org/2000/svg">
<path d="M33.7497 3.33179C35.3597 3.33179 36.6663 4.63845 36.6663 6.24845V11.3201C36.6662 12.1574 36.4366 12.9786 36.0026 13.6947C35.5687 14.4107 34.9468 14.9942 34.2047 15.3818L23.7047 20.8651C25.3902 21.6995 26.7439 23.0796 27.5457 24.7809C28.3475 26.4822 28.5502 28.4047 28.1209 30.2358C27.6916 32.0669 26.6554 33.6989 25.181 34.8665C23.7065 36.0341 21.8804 36.6686 19.9997 36.6668C18.1195 36.6678 16.2943 36.033 14.8205 34.8655C13.3468 33.698 12.3111 32.0665 11.8819 30.236C11.4526 28.4055 11.655 26.4836 12.4561 24.7827C13.2573 23.0817 14.6101 21.7017 16.2947 20.8668L5.79467 15.3835C5.05225 14.9957 4.43026 14.412 3.99627 13.6956C3.56229 12.9793 3.33289 12.1577 3.33301 11.3201V6.24845C3.33301 4.63845 4.63967 3.33179 6.24967 3.33179H33.7497ZM19.9997 22.4985C18.4526 22.4985 16.9688 23.113 15.8749 24.207C14.7809 25.301 14.1663 26.7847 14.1663 28.3318C14.1663 29.8789 14.7809 31.3626 15.8749 32.4566C16.9688 33.5505 18.4526 34.1651 19.9997 34.1651C21.5468 34.1651 23.0305 33.5505 24.1245 32.4566C25.2184 31.3626 25.833 29.8789 25.833 28.3318C25.833 26.7847 25.2184 25.301 24.1245 24.207C23.0305 23.113 21.5468 22.4985 19.9997 22.4985ZM26.6663 5.83179H13.328V16.4951L19.8063 19.8785C19.866 19.9097 19.9323 19.926 19.9997 19.926C20.067 19.926 20.1334 19.9097 20.193 19.8785L26.6663 16.4985V5.83179Z" fill="#12355B"/>
</svg>
