<svg width="21" height="21" viewBox="0 0 21 21" fill="none" xmlns="http://www.w3.org/2000/svg">
<g clip-path="url(#clip0_236_1427)">
<path d="M16.8901 0.5H4.89014C2.681 0.5 0.890137 2.29086 0.890137 4.5V16.5C0.890137 18.7091 2.681 20.5 4.89014 20.5H16.8901C19.0993 20.5 20.8901 18.7091 20.8901 16.5V4.5C20.8901 2.29086 19.0993 0.5 16.8901 0.5Z" fill="#12355B"/>
<path d="M13.8901 8.625H11.6401V7.125C11.6401 6.711 11.9761 6.375 12.3901 6.375H13.1401V4.5H11.6401C10.3974 4.5 9.39014 5.50725 9.39014 6.75V8.625H7.89014V10.5H9.39014V16.5H11.6401V10.5H13.1401L13.8901 8.625Z" fill="white"/>
</g>
<defs>
<clipPath id="clip0_236_1427">
<rect width="20" height="20" fill="white" transform="translate(0.890137 0.5)"/>
</clipPath>
</defs>
</svg>
