<svg width="21" height="21" viewBox="0 0 21 21" fill="none" xmlns="http://www.w3.org/2000/svg">
<g clip-path="url(#clip0_236_1439)">
<path d="M16.8901 0.5H4.89014C2.681 0.5 0.890137 2.29086 0.890137 4.5V16.5C0.890137 18.7091 2.681 20.5 4.89014 20.5H16.8901C19.0993 20.5 20.8901 18.7091 20.8901 16.5V4.5C20.8901 2.29086 19.0993 0.5 16.8901 0.5Z" fill="#12355B"/>
<path d="M13.1304 5.5H8.6497C7.12808 5.5 5.89014 6.738 5.89014 8.25962V12.7403C5.89014 14.262 7.12808 15.4999 8.6497 15.4999H13.1304C14.6521 15.4999 15.89 14.2619 15.89 12.7403V8.25962C15.8901 6.738 14.6521 5.5 13.1304 5.5ZM15.0029 12.7403C15.0029 13.7728 14.1629 14.6127 13.1304 14.6127H8.6497C7.61731 14.6128 6.77738 13.7728 6.77738 12.7403V8.25962C6.77738 7.22723 7.61731 6.38724 8.6497 6.38724H13.1304C14.1628 6.38724 15.0028 7.22723 15.0028 8.25962L15.0029 12.7403Z" fill="white"/>
<path d="M10.8902 7.92334C9.46938 7.92334 8.31348 9.07924 8.31348 10.5001C8.31348 11.9208 9.46938 13.0767 10.8902 13.0767C12.311 13.0767 13.4669 11.9208 13.4669 10.5001C13.4669 9.07924 12.311 7.92334 10.8902 7.92334ZM10.8902 12.1894C9.95867 12.1894 9.20072 11.4316 9.20072 10.5C9.20072 9.56841 9.95861 8.81052 10.8902 8.81052C11.8218 8.81052 12.5797 9.56841 12.5797 10.5C12.5797 11.4316 11.8217 12.1894 10.8902 12.1894Z" fill="white"/>
<path d="M13.5749 7.1709C13.404 7.1709 13.2361 7.2401 13.1153 7.36136C12.994 7.48203 12.9243 7.65001 12.9243 7.82154C12.9243 7.99254 12.9941 8.16047 13.1153 8.28173C13.236 8.40239 13.404 8.47219 13.5749 8.47219C13.7465 8.47219 13.9138 8.40239 14.0351 8.28173C14.1564 8.16047 14.2256 7.99249 14.2256 7.82154C14.2256 7.65001 14.1564 7.48203 14.0351 7.36136C13.9144 7.2401 13.7465 7.1709 13.5749 7.1709Z" fill="white"/>
</g>
<defs>
<clipPath id="clip0_236_1439">
<rect width="20" height="20" fill="white" transform="translate(0.890137 0.5)"/>
</clipPath>
</defs>
</svg>
