<svg width="50" height="40" viewBox="0 0 50 40" fill="none" xmlns="http://www.w3.org/2000/svg">
<path d="M21.2656 5.04687L17.2734 9.03906C16.0781 9.36719 14.9688 9.96875 14.0312 10.7969L11.9531 12.6484C11.1562 13.3594 10.1172 13.75 9.04688 13.75H7.5V23.75C9.09375 23.7969 10.6094 24.4453 11.7422 25.5781L14.5234 28.3594L15.0703 28.9062L17.1797 31.0156C17.6641 31.5 18.4609 31.5 18.9453 31.0156C19.0781 30.8828 19.1797 30.7266 19.2344 30.5625C19.4531 29.9609 19.9609 29.5078 20.5859 29.3672C21.2109 29.2266 21.8672 29.4141 22.3203 29.875L23.1641 30.7031C24.0703 31.6094 25.5391 31.6094 26.4375 30.7031C26.8594 30.2812 27.0859 29.7422 27.1094 29.1875C27.1406 28.5 27.5469 27.8906 28.1719 27.5938C28.7969 27.2969 29.5234 27.3594 30.0781 27.7578C30.8125 28.2812 31.8359 28.2109 32.4922 27.5547C33.2266 26.8203 33.2266 25.6328 32.4922 24.9062L26.5703 18.9844L23.7734 21.5625C21.6406 23.5312 18.3672 23.5625 16.1953 21.6328C13.7188 19.4297 13.6641 15.5859 16.0703 13.3125L21.5469 8.14062C23.6875 6.125 26.5156 5 29.4609 5C32.2812 5 35.0078 6.03906 37.1094 7.90625L39.4609 10H48.75C49.4375 10 50 10.5625 50 11.25V27.5C50 28.8828 48.8828 30 47.5 30H45C44.0781 30 43.2656 29.5 42.8359 28.75H36.2031C35.9375 29.2734 35.5859 29.7734 35.1484 30.2109C33.8125 31.5469 31.9609 32.0703 30.2266 31.7812C29.9453 32.3516 29.5625 32.8828 29.0859 33.3594C26.9531 35.4922 23.6172 35.7031 21.2422 33.9922C19.2812 35.6172 16.3594 35.5156 14.5234 33.6719L12.4219 31.5625L11.875 31.0156L9.09375 28.2344C8.66406 27.8047 8.10156 27.5547 7.5 27.5078C7.5 28.8828 6.375 30 5 30H2.5C1.11719 30 0 28.8828 0 27.5V11.25C0 10.5625 0.5625 10 1.25 10H9.04688C9.20312 10 9.35156 9.94531 9.46094 9.84375L11.5312 8C13.7109 6.07031 16.5156 5 19.4297 5H20.2344C20.5781 5 20.9297 5.01562 21.2656 5.04687ZM42.5 25V13.75H38.75C38.2891 13.75 37.8438 13.5781 37.5078 13.2734L34.625 10.7109C33.2031 9.44531 31.3672 8.75 29.4609 8.75C27.4766 8.75 25.5703 9.50781 24.125 10.8672L18.6484 16.0391C17.8438 16.8047 17.8594 18.0938 18.6875 18.8281C19.4141 19.4766 20.5156 19.4609 21.2266 18.8047L26.8438 13.6172C27.6016 12.9141 28.7891 12.9609 29.4922 13.7266C30.1953 14.4922 30.1484 15.6719 29.3828 16.375L29.3203 16.4375L35.1328 22.25C35.9141 23.0312 36.4219 23.9922 36.6484 24.9922H42.5V25ZM5 26.25C5 25.9185 4.8683 25.6005 4.63388 25.3661C4.39946 25.1317 4.08152 25 3.75 25C3.41848 25 3.10054 25.1317 2.86612 25.3661C2.6317 25.6005 2.5 25.9185 2.5 26.25C2.5 26.5815 2.6317 26.8995 2.86612 27.1339C3.10054 27.3683 3.41848 27.5 3.75 27.5C4.08152 27.5 4.39946 27.3683 4.63388 27.1339C4.8683 26.8995 5 26.5815 5 26.25ZM46.25 27.5C46.5815 27.5 46.8995 27.3683 47.1339 27.1339C47.3683 26.8995 47.5 26.5815 47.5 26.25C47.5 25.9185 47.3683 25.6005 47.1339 25.3661C46.8995 25.1317 46.5815 25 46.25 25C45.9185 25 45.6005 25.1317 45.3661 25.3661C45.1317 25.6005 45 25.9185 45 26.25C45 26.5815 45.1317 26.8995 45.3661 27.1339C45.6005 27.3683 45.9185 27.5 46.25 27.5Z" fill="#12355B"/>
</svg>
