<svg width="121" height="120" viewBox="0 0 121 120" fill="none" xmlns="http://www.w3.org/2000/svg">
<rect x="0.5" width="120" height="120" rx="60" fill="#F2F7FC"/>
<g clip-path="url(#clip0_83_5454)">
<path d="M50.1238 65.322L56.6811 89.9096L35 65.322H50.1238Z" fill="#12355B"/>
<path d="M50.2486 61.8091H35L45.023 51.7861C45.3535 51.4566 45.7995 51.2721 46.2652 51.2721H56.2699L50.2481 61.8096L50.2486 61.8091Z" fill="#12355B"/>
<path d="M67.3517 61.8091H52.5371L60.3152 51.2721L67.3517 61.8091Z" fill="#12355B"/>
<path d="M66.8722 65.412L60.3155 90L53.7588 65.412H66.8722Z" fill="#12355B"/>
<path d="M70.3827 61.809L64.3613 51.2715H74.3661C74.8318 51.2715 75.2783 51.456 75.6078 51.7855L85.6313 61.8085H70.3822L70.3827 61.809Z" fill="#12355B"/>
<path d="M70.5074 65.412H85.6313L63.9502 90L70.5074 65.412Z" fill="#12355B"/>
<path d="M60.3158 40.0142C59.346 40.0142 58.5596 39.2283 58.5596 38.2585V31.7563C58.5596 30.7865 59.346 30.0006 60.3158 30.0006C61.2857 30.0006 62.0716 30.7865 62.0716 31.7563V38.2585C62.0716 39.2283 61.2857 40.0142 60.3158 40.0142Z" fill="#12355B"/>
<path d="M42.8578 43.6411L39.6067 38.01C39.1218 37.1706 39.4092 36.0958 40.2497 35.6114C41.0891 35.1264 42.1639 35.4139 42.6483 36.2543L45.8994 41.8848C46.3843 42.7247 46.0969 43.7991 45.2565 44.2835C44.4202 44.7669 43.3448 44.4846 42.8578 43.6411Z" fill="#12355B"/>
<path d="M75.3746 44.2834C74.5346 43.7985 74.2467 42.7241 74.7316 41.8842L77.9827 36.2537C78.4676 35.4138 79.5414 35.1258 80.3814 35.6108C81.2213 36.0957 81.5092 37.17 81.0243 38.0094L77.7732 43.6405C77.2867 44.483 76.2114 44.7668 75.3746 44.2834Z" fill="#12355B"/>
</g>
<defs>
<clipPath id="clip0_83_5454">
<rect width="50.6317" height="60" fill="white" transform="translate(35 30)"/>
</clipPath>
</defs>
</svg>
