<svg width="21" height="21" viewBox="0 0 21 21" fill="none" xmlns="http://www.w3.org/2000/svg">
<g clip-path="url(#clip0_236_1431)">
<path d="M16.8901 0.5H4.89014C2.681 0.5 0.890137 2.29086 0.890137 4.5V16.5C0.890137 18.7091 2.681 20.5 4.89014 20.5H16.8901C19.0993 20.5 20.8901 18.7091 20.8901 16.5V4.5C20.8901 2.29086 19.0993 0.5 16.8901 0.5Z" fill="#12355B"/>
<mask id="mask0_236_1431" style="mask-type:luminance" maskUnits="userSpaceOnUse" x="5" y="5" width="11" height="11">
<path d="M15.8901 5.5H5.89014V15.5H15.8901V5.5Z" fill="white"/>
</mask>
<g mask="url(#mask0_236_1431)">
<path d="M15.8901 7.39938C15.5182 7.5625 15.122 7.67062 14.7088 7.72312C15.1338 7.46938 15.4582 7.07062 15.6107 6.59C15.2145 6.82625 14.777 6.99313 14.3107 7.08625C13.9345 6.68563 13.3982 6.4375 12.8132 6.4375C11.6782 6.4375 10.7645 7.35875 10.7645 8.48813C10.7645 8.65062 10.7783 8.80687 10.812 8.95562C9.10764 8.8725 7.59952 8.05563 6.58639 6.81125C6.40951 7.11813 6.30577 7.46938 6.30577 7.8475C6.30577 8.5575 6.67139 9.18687 7.21639 9.55125C6.88701 9.545 6.56389 9.44938 6.29014 9.29875C6.29014 9.305 6.29014 9.31312 6.29014 9.32125C6.29014 10.3175 7.00076 11.145 7.93264 11.3356C7.76576 11.3812 7.58389 11.4031 7.39514 11.4031C7.26389 11.4031 7.13139 11.3956 7.00701 11.3681C7.27264 12.18 8.02639 12.7769 8.92264 12.7962C8.22514 13.3419 7.33952 13.6706 6.38077 13.6706C6.21264 13.6706 6.05139 13.6631 5.89014 13.6425C6.79826 14.2281 7.87452 14.5625 9.03514 14.5625C12.8076 14.5625 14.8701 11.4375 14.8701 8.72875C14.8701 8.63812 14.867 8.55063 14.8626 8.46375C15.2695 8.175 15.6113 7.81438 15.8901 7.39938Z" fill="white"/>
</g>
</g>
<defs>
<clipPath id="clip0_236_1431">
<rect width="20" height="20" fill="white" transform="translate(0.890137 0.5)"/>
</clipPath>
</defs>
</svg>
