<svg width="24" height="24" viewBox="0 0 24 24" fill="none" xmlns="http://www.w3.org/2000/svg">
<rect x="0.75" y="0.75" width="22.5" height="22.5" rx="11.25" fill="white"/>
<path d="M6.95084 17.0502C6.79014 16.8895 6.69986 16.6716 6.69986 16.4443C6.69986 16.217 6.79014 15.9991 6.95084 15.8384L14.3736 8.41557L9.17112 8.41608C8.94345 8.41608 8.72511 8.32564 8.56412 8.16465C8.40314 8.00367 8.3127 7.78533 8.3127 7.55766C8.3127 7.32999 8.40314 7.11165 8.56412 6.95067C8.72511 6.78968 8.94345 6.69924 9.17112 6.69924L16.4424 6.69924C16.5552 6.69905 16.6669 6.72112 16.7711 6.76419C16.8754 6.80726 16.9701 6.87048 17.0498 6.95023C17.1296 7.02998 17.1928 7.12469 17.2359 7.22893C17.279 7.33316 17.301 7.44488 17.3008 7.55766L17.3008 14.829C17.3008 14.9417 17.2786 15.0533 17.2355 15.1575C17.1923 15.2616 17.1291 15.3562 17.0494 15.4359C16.9697 15.5157 16.8751 15.5789 16.7709 15.622C16.6668 15.6652 16.5551 15.6874 16.4424 15.6874C16.3297 15.6874 16.2181 15.6652 16.1139 15.622C16.0098 15.5789 15.9151 15.5157 15.8354 15.4359C15.7557 15.3562 15.6925 15.2616 15.6493 15.1575C15.6062 15.0533 15.584 14.9417 15.584 14.829L15.5855 9.62745L8.16273 17.0502C8.00202 17.2109 7.78406 17.3012 7.55679 17.3012C7.32952 17.3012 7.11155 17.2109 6.95084 17.0502Z" fill="#F25764"/>
<rect x="0.75" y="0.75" width="22.5" height="22.5" rx="11.25" stroke="#F25764" stroke-width="1.5"/>
</svg>
