<svg width="25" height="24" viewBox="0 0 25 24" fill="none" xmlns="http://www.w3.org/2000/svg">
<rect x="1.25" y="0.75" width="22.5" height="22.5" rx="11.25" fill="white"/>
<path d="M7.45084 17.0502C7.29014 16.8895 7.19986 16.6716 7.19986 16.4443C7.19986 16.217 7.29014 15.9991 7.45084 15.8384L14.8736 8.41557L9.67112 8.41608C9.44345 8.41608 9.22511 8.32564 9.06412 8.16465C8.90314 8.00367 8.8127 7.78533 8.8127 7.55766C8.8127 7.32999 8.90314 7.11165 9.06412 6.95067C9.22511 6.78968 9.44345 6.69924 9.67112 6.69924L16.9424 6.69924C17.0552 6.69905 17.1669 6.72112 17.2711 6.76419C17.3754 6.80726 17.4701 6.87048 17.5498 6.95023C17.6296 7.02998 17.6928 7.12469 17.7359 7.22893C17.779 7.33316 17.801 7.44488 17.8008 7.55766L17.8008 14.829C17.8008 14.9417 17.7786 15.0533 17.7355 15.1575C17.6923 15.2616 17.6291 15.3562 17.5494 15.4359C17.4697 15.5157 17.3751 15.5789 17.2709 15.622C17.1668 15.6652 17.0551 15.6874 16.9424 15.6874C16.8297 15.6874 16.7181 15.6652 16.6139 15.622C16.5098 15.5789 16.4151 15.5157 16.3354 15.4359C16.2557 15.3562 16.1925 15.2616 16.1493 15.1575C16.1062 15.0533 16.084 14.9417 16.084 14.829L16.0855 9.62745L8.66273 17.0502C8.50202 17.2109 8.28406 17.3012 8.05679 17.3012C7.82952 17.3012 7.61155 17.2109 7.45084 17.0502Z" fill="#12355B"/>
<rect x="1.25" y="0.75" width="22.5" height="22.5" rx="11.25" stroke="#12355B" stroke-width="1.5"/>
</svg>
