<svg width="121" height="120" viewBox="0 0 121 120" fill="none" xmlns="http://www.w3.org/2000/svg">
<rect x="0.5" width="120" height="120" rx="60" fill="#F2F7FC"/>
<g clip-path="url(#clip0_83_5482)">
<path d="M85.269 65.1762L77.2099 43.7418C77.2099 43.7369 77.2099 43.7321 77.2051 43.7273C76.1428 40.9025 73.4001 39 70.3822 39C67.3643 39 64.6216 40.8977 63.5544 43.7273C63.2454 44.5481 63.0909 45.4125 63.0909 46.2913V55.6637H58.9238V46.2913C58.9238 42.269 55.6547 39 51.6325 39C48.6145 39 45.8719 40.8977 44.8047 43.7273C44.8047 43.7321 44.8047 43.7369 44.7999 43.7418L36.7408 65.1714C36.258 66.4655 36.0117 67.8223 36.0117 69.2082C36.0117 75.5289 41.1543 80.6666 47.4702 80.6666C53.7861 80.6666 58.9286 75.5289 58.9286 69.2082V68.1652H63.0957V69.2082C63.0957 75.5289 68.2383 80.6666 74.5542 80.6666C80.8701 80.6666 86.0126 75.5289 86.0126 69.2082C86.0126 67.8223 85.7663 66.4655 85.2786 65.1762H85.269ZM47.4605 76.4995C43.4382 76.4995 40.1692 73.2304 40.1692 69.2082C40.1692 68.3245 40.3237 67.4602 40.6328 66.6441C41.6951 63.8194 44.4377 61.9169 47.4605 61.9169C51.4828 61.9169 54.7518 65.1859 54.7518 69.2082C54.7518 73.2304 51.4828 76.4995 47.4605 76.4995ZM74.5445 76.4995C70.5222 76.4995 67.2532 73.2304 67.2532 69.2082C67.2532 65.1859 70.5222 61.9169 74.5445 61.9169C77.5672 61.9169 80.3099 63.8145 81.3722 66.6441C81.6813 67.465 81.8358 68.3293 81.8358 69.2082C81.8358 73.2304 78.5668 76.4995 74.5445 76.4995Z" fill="#12355B"/>
</g>
<defs>
<clipPath id="clip0_83_5482">
<rect width="50" height="41.6666" fill="white" transform="translate(36 39)"/>
</clipPath>
</defs>
</svg>
